<?xml version="1.0" encoding="UTF-8" standalone="no" ?>
<!DOCTYPE svg PUBLIC "-//W3C//DTD SVG 1.1//EN" "http://www.w3.org/Graphics/SVG/1.1/DTD/svg11.dtd">
<svg xmlns="http://www.w3.org/2000/svg" xmlns:xlink="http://www.w3.org/1999/xlink" version="1.1" width="1080" height="1080" viewBox="0 0 1080 1080" xml:space="preserve">
<desc>Created with Fabric.js 5.2.4</desc>
<defs>
</defs>
<g transform="matrix(1 0 0 1 540 540)" id="f5ad233f-4366-4762-93e4-f68b23da062c"  >
<rect style="stroke: none; stroke-width: 1; stroke-dasharray: none; stroke-linecap: butt; stroke-dashoffset: 0; stroke-linejoin: miter; stroke-miterlimit: 4; fill: rgb(255,255,255); fill-rule: nonzero; opacity: 1; visibility: hidden;" vector-effect="non-scaling-stroke"  x="-540" y="-540" rx="0" ry="0" width="1080" height="1080" />
</g>
<g transform="matrix(1 0 0 1 540 540)" id="65d45077-794c-4ef0-ab53-96b4cf97e3dd"  >
</g>
<g transform="matrix(1 0 0 1 540.5 540.5)" id="823cfd3d-a3f0-4856-85ad-f3e9d2fc4521"  >
<path style="stroke: rgb(27,158,27); stroke-width: 1; stroke-dasharray: none; stroke-linecap: butt; stroke-dashoffset: 0; stroke-linejoin: miter; stroke-miterlimit: 4; fill: rgb(94,201,94); fill-rule: nonzero; opacity: 0.91;" vector-effect="non-scaling-stroke"  transform=" translate(-12, -11.25)" d="M 6.633 10.5 C 7.439 10.5 8.166 10.054 8.664 9.42 C 9.440256522529227 8.429617308744591 10.41470654257801 7.612182828452008 11.524999999999995 7.020000000000004 C 12.248000000000001 6.635999999999999 12.875 6.064 13.178 5.305 C 13.390806143946822 4.7732506610516054 13.500097330322575 4.205751084591183 13.5 3.6329999999999987 L 13.5 3 C 13.5 2.585786437626905 13.835786437626904 2.25 14.25 2.25 C 15.492640687119286 2.25 16.5 3.2573593128807143 16.5 4.5 C 16.5 5.652 16.24 6.743 15.777 7.718 C 15.511 8.276 15.883999999999999 9 16.502 9 L 19.628 9 C 20.654 9 21.573 9.693999999999999 21.682 10.715 C 21.727 11.137 21.75 11.565 21.75 12 C 21.754134765251415 14.736347536533739 20.819048775944363 17.391229275143907 19.101000000000006 19.520999999999994 C 18.712999999999997 20.003 18.114 20.25 17.496 20.25 L 13.48 20.25 C 12.997 20.25 12.516 20.172 12.057 20.02 L 8.943000000000001 18.98 C 8.484103017868847 18.827384156901214 8.003609303436768 18.749721785629692 7.519999999999997 18.75 L 5.904 18.75 M 14.25 9 L 16.5 9 M 5.904 18.75 C 5.987 18.955 6.077 19.155 6.1739999999999995 19.352 C 6.3709999999999996 19.752 6.095999999999999 20.25 5.651 20.25 L 4.742999999999999 20.25 C 3.853999999999999 20.25 3.0299999999999994 19.732 2.7709999999999995 18.882 C 2.424643849604183 17.74524562977481 2.249061187689403 16.563348517807185 2.2499999999999987 15.375000000000002 C 2.2499999999999996 13.822000000000003 2.5449999999999995 12.339000000000002 3.0809999999999995 10.977000000000002 C 3.387 10.203 4.167 9.75 5 9.75 L 6.053 9.75 C 6.525 9.75 6.798 10.306000000000001 6.553 10.71 C 5.698890697411022 12.115951929916422 5.24842498249148 13.729947751805565 5.251 15.375 C 5.2509999999999994 16.569 5.483 17.708 5.904999999999999 18.75 z" stroke-linecap="round" />
</g>
</svg>