
        <svg xmlns="http://www.w3.org/2000/svg" xmlns:xlink="http://www.w3.org/1999/xlink" version="1.1" width="3191.9994972537957" height="3191.9999697596268" viewBox="0 0 3191.9994972537957 3191.9999697596268">
			
			<g transform="scale(9.59999848798134) translate(10, 10)">
				<defs id="SvgjsDefs1343"/><g id="SvgjsG1344" featureKey="rootContainer" transform="matrix(6.45128059387207,0,0,6.45128059387207,0.000012304841279753895,0.000012304841279753895)" fill="#fff"><path xmlns="http://www.w3.org/2000/svg" d="M24.22 48.44a24.22 24.22 0 1 1 24.22-24.22 24.25 24.25 0 0 1-24.22 24.22zm0-47.62a23.4 23.4 0 1 0 23.4 23.4A23.43 23.43 0 0 0 24.22.82z"/><path xmlns="http://www.w3.org/2000/svg" d="M24.22 46.19a22 22 0 1 1 22-22 22 22 0 0 1-22 22zm0-43.67a21.7 21.7 0 1 0 21.7 21.7 21.72 21.72 0 0 0-21.7-21.71z"/></g><g id="SvgjsG1345" featureKey="symbolFeature-0" transform="matrix(1.39691960811615,0,0,1.39691960811615,86.42675207695365,39.518241115495314)" fill="#fff"><title xmlns="http://www.w3.org/2000/svg">Individual Subway Icons</title><path xmlns="http://www.w3.org/2000/svg" d="M81.1,66.27h-2a28.88,28.88,0,0,0-57.76,0h-2a30.88,30.88,0,0,1,61.76,0Z"/><path xmlns="http://www.w3.org/2000/svg" d="M50.22,37.4a6,6,0,1,1,6-6A6,6,0,0,1,50.22,37.4Zm0-10a4,4,0,1,0,4,4A4,4,0,0,0,50.22,27.35Z"/><path xmlns="http://www.w3.org/2000/svg" d="M71.49,55.31a1,1,0,0,1-.9-.55c0-.1-5.07-9.86-16.7-10.41a1,1,0,0,1-1-1.05,1,1,0,0,1,1-.95,22.22,22.22,0,0,1,18.4,11.52,1,1,0,0,1-.44,1.34A1,1,0,0,1,71.49,55.31Z"/><path xmlns="http://www.w3.org/2000/svg" d="M86.42,67.27H13.58a1,1,0,1,1,0-2H86.42a1,1,0,0,1,0,2Z"/><path xmlns="http://www.w3.org/2000/svg" d="M75.72,74.65H24.28a1,1,0,0,1,0-2H75.72a1,1,0,0,1,0,2Z"/><path xmlns="http://www.w3.org/2000/svg" d="M24.28,74.65a1,1,0,0,1-.71-.29L16.16,67a1,1,0,0,1,0-1.41,1,1,0,0,1,1.42,0L25,72.94a1,1,0,0,1,0,1.42A1,1,0,0,1,24.28,74.65Z"/><path xmlns="http://www.w3.org/2000/svg" d="M75.72,74.65a1,1,0,0,1-.71-.29,1,1,0,0,1,0-1.42l7.4-7.38a1,1,0,0,1,1.42,0,1,1,0,0,1,0,1.41l-7.41,7.38A1,1,0,0,1,75.72,74.65Z"/><circle xmlns="http://www.w3.org/2000/svg" cx="73.56" cy="57.67" r="1.08"/></g><g id="SvgjsG1346" featureKey="nameFeature-0" transform="matrix(1.4317827224731445,0,0,1.4317827224731445,54.28186073359636,146.81860938414513)" fill="#fff"><path d="M1.2 40 l0 -4.48 l0.84 -0.56 l0 -17.92 l-0.84 -0.56 l0 -4.48 l14.56 0 l0 5.88 l-4.48 0 l-0.56 -0.84 l-3.64 0 l0 6.44 l6.44 0 l0 5.04 l-6.44 0 l0 6.44 l0.84 0.56 l0 4.48 l-6.72 0 z M22.458 40 l-3.72 -3.72 l0 -20.56 l3.72 -3.72 l9.08 0 l3.72 3.72 l0 20.56 l-3.72 3.72 l-9.08 0 z M24.538 34.96 l4.92 0 l0.76 -0.76 l0 -16.4 l-0.76 -0.76 l-4.92 0 l-0.76 0.76 l0 16.4 z M41.956 40 l-3.72 -3.72 l0 -20.56 l3.72 -3.72 l9.08 0 l3.72 3.72 l0 20.56 l-3.72 3.72 l-9.08 0 z M44.036 34.96 l4.92 0 l0.76 -0.76 l0 -16.4 l-0.76 -0.76 l-4.92 0 l-0.76 0.76 l0 16.4 z M57.73400000000001 40 l0 -4.48 l0.84 -0.56 l0 -17.92 l-0.84 -0.56 l0 -4.48 l13.36 0 l3.72 3.72 l0 20.56 l-3.72 3.72 l-13.36 0 z M63.614000000000004 34.96 l5.4 0 l0.76 -0.76 l0 -16.4 l-0.76 -0.76 l-5.4 0 l0 17.92 z M84.77000000000002 40 l0 -4.48 l0.84 -0.56 l3.64 -17.92 l-0.84 -0.56 l0 -4.48 l10.64 0 l0 4.48 l-0.84 0.56 l3.64 17.92 l0.84 0.56 l0 4.48 l-4.96 0 l-1.24 -6.16 l-5.52 0 l-1.24 6.16 l-4.96 0 z M92.01000000000002 28.8 l3.44 0 l-1.72 -8.56 z M104.86800000000002 40 l0 -4.48 l0.84 -0.56 l0 -17.92 l-0.84 -0.56 l0 -4.48 l12.8 0 l3.72 3.72 l0 10.76 l-3.72 3.72 l-6.92 0 l0 4.76 l0.84 0.56 l0 4.48 l-6.72 0 z M110.74800000000002 25.16 l4.84 0 l0.76 -0.76 l0 -6.6 l-0.76 -0.76 l-4.84 0 l0 8.12 z M124.36600000000003 40 l0 -4.48 l0.84 -0.56 l0 -17.92 l-0.84 -0.56 l0 -4.48 l12.8 0 l3.72 3.72 l0 10.76 l-3.72 3.72 l-6.92 0 l0 4.76 l0.84 0.56 l0 4.48 l-6.72 0 z M130.24600000000004 25.16 l4.84 0 l0.76 -0.76 l0 -6.6 l-0.76 -0.76 l-4.84 0 l0 8.12 z"/></g><g id="SvgjsG1347" featureKey="sloganFeature-0" transform="matrix(0.8391091823577881,0,0,0.8391091823577881,110.4965344774275,213.0799000691091)" fill="#fff"><path d="M2.46 20 l-1.86 -1.86 l0 -2.62 l2.52 0 l0 1.58 l0.38 0.38 l1.76 0 l0.38 -0.38 l0 -8.58 l-1.26 0 l-0.42 -0.28 l0 -2.24 l4.2 0 l0 12.14 l-1.86 1.86 l-3.84 0 z M9.36 20 l0 -2.24 l0.42 -0.28 l0 -8.96 l-0.42 -0.28 l0 -2.24 l3.36 0 l0 2.24 l-0.42 0.28 l0 8.96 l0.42 0.28 l0 2.24 l-3.36 0 z M9.7 5.4399999999999995 l0.72 -1.96 l1.96 0 l-1.26 1.96 l-1.42 0 z M13.92 20 l0 -2.24 l0.42 -0.28 l0 -8.96 l-0.42 -0.28 l0 -2.24 l6.68 0 l1.86 1.86 l0 10.28 l-1.86 1.86 l-6.68 0 z M16.86 17.48 l2.7 0 l0.38 -0.38 l0 -8.2 l-0.38 -0.38 l-2.7 0 l0 8.96 z M23.660000000000004 20 l0 -2.24 l0.42 -0.28 l0 -8.96 l-0.42 -0.28 l0 -2.24 l3.36 0 l0 2.24 l-0.42 0.28 l0 8.96 l1.4 0 l0.28 -0.42 l2.24 0 l0 2.94 l-6.86 0 z M33.580000000000005 20 l-1.86 -1.86 l0 -10.28 l1.86 -1.86 l4.54 0 l1.86 1.86 l0 10.28 l-1.86 1.86 l-4.54 0 z M34.620000000000005 17.48 l2.46 0 l0.38 -0.38 l0 -8.2 l-0.38 -0.38 l-2.46 0 l-0.38 0.38 l0 8.2 z M45.20000000000001 16.08 l-0.42 -7.84 l0 -2.24 l2.8 0 l0 2.24 l-0.42 7.84 l-1.96 0 z M44.92000000000001 20 l0 -2.52 l2.52 0 l0 2.52 l-2.52 0 z M48.78000000000001 12.16 l0 -2.24 l7 0 l0 2.24 l-7 0 z M48.78000000000001 16.08 l0 -2.24 l7 0 l0 2.24 l-7 0 z M60.58000000000001 20 l0 -1.96 l4.38 -9.52 l-1.58 0 l-0.28 0.42 l-2.24 0 l0 -2.94 l7.14 0 l0 1.96 l-4.38 9.52 l1.86 0 l0.28 -0.42 l2.24 0 l0 2.94 l-7.42 0 z M63.38000000000001 5.4399999999999995 l-1.82 -1.68 l1.82 0 l0.92 0.84 l0.9 -0.84 l1.82 0 l-1.82 1.68 l-1.82 0 z M71.48 20 l-1.86 -1.86 l0 -9.62 l-0.42 -0.28 l0 -2.24 l3.36 0 l0 2.24 l-0.42 0.28 l0 8.58 l0.38 0.38 l2.32 0 l0.38 -0.38 l0 -8.58 l-0.42 -0.28 l0 -2.24 l3.36 0 l0 2.24 l-0.42 0.28 l0 9.62 l-1.86 1.86 l-4.4 0 z M79.36 20 l0 -2.24 l0.42 -0.28 l0 -8.96 l-0.42 -0.28 l0 -2.24 l3.1 0 l2.08 5.3 l2.08 -5.3 l3.1 0 l0 2.24 l-0.42 0.28 l0 8.96 l0.42 0.28 l0 2.24 l-3.36 0 l0 -2.24 l0.42 -0.28 l0 -4.98 l-1.24 3.16 l-2 0 l-1.24 -3.16 l0 4.98 l0.42 0.28 l0 2.24 l-3.36 0 z M90.92 20 l0 -2.24 l0.42 -0.28 l0 -8.96 l-0.42 -0.28 l0 -2.24 l6.4 0 l1.86 1.86 l0 5.38 l-1.86 1.86 l-3.46 0 l0 2.38 l0.42 0.28 l0 2.24 l-3.36 0 z M93.86000000000001 12.58 l2.42 0 l0.38 -0.38 l0 -3.3 l-0.38 -0.38 l-2.42 0 l0 4.06 z M99.98 20 l0 -2.24 l0.42 -0.28 l1.82 -8.96 l-0.42 -0.28 l0 -2.24 l5.32 0 l0 2.24 l-0.42 0.28 l1.82 8.96 l0.42 0.28 l0 2.24 l-2.48 0 l-0.62 -3.08 l-2.76 0 l-0.62 3.08 l-2.48 0 z M103.6 14.4 l1.72 0 l-0.86 -4.28 z"/></g>
			</g>
		</svg>
	